<svg width="95" height="32" viewBox="0 0 95 32" fill="none" xmlns="http://www.w3.org/2000/svg">
<g clip-path="url(#clip0_13_36)">
<path d="M0 20.944V20.882C0 14.947 4.527 9.91701 10.894 9.91701C14.063 9.91701 16.174 10.675 18.105 12.069C18.468 12.342 18.86 12.856 18.86 13.583C18.86 14.583 18.046 15.431 17.02 15.431C16.537 15.431 16.175 15.22 15.873 15.006C14.515 14.008 13.037 13.34 10.743 13.34C6.851 13.34 3.893 16.764 3.893 20.822V20.882C3.893 25.245 6.76 28.455 11.075 28.455C13.067 28.455 14.877 27.819 16.175 26.85V22.883H12.01C11.105 22.883 10.351 22.185 10.351 21.277C10.351 20.368 11.105 19.641 12.011 19.641H17.896C18.951 19.641 19.766 20.458 19.766 21.52V27.183C19.766 28.243 19.344 29.001 18.468 29.546C16.657 30.758 14.122 31.848 10.955 31.848C4.345 31.848 0 27.123 0 20.944ZM23.093 11.039C23.0906 10.8003 23.1357 10.5634 23.2257 10.3423C23.3158 10.1212 23.4489 9.92019 23.6173 9.751C23.7858 9.5818 23.9862 9.44782 24.2069 9.35683C24.4276 9.26584 24.6643 9.21967 24.903 9.22101C25.929 9.22101 26.745 10.039 26.745 11.039V29.819C26.745 30.849 25.929 31.636 24.904 31.636C24.6653 31.6375 24.4286 31.5914 24.2078 31.5006C23.9871 31.4097 23.7866 31.2758 23.618 31.1067C23.4495 30.9376 23.3163 30.7367 23.2261 30.5156C23.136 30.2945 23.0907 30.0577 23.093 29.819V11.039ZM42.91 23.579V23.519C42.91 20.701 40.889 18.369 38.022 18.369C35.095 18.369 33.224 20.671 33.224 23.458V23.518C33.224 26.305 35.246 28.637 38.082 28.637C41.039 28.637 42.91 26.335 42.91 23.579ZM29.573 23.579V23.519C29.573 18.944 33.193 15.158 38.083 15.158C42.971 15.158 46.562 18.883 46.562 23.458V23.518C46.562 28.062 42.941 31.848 38.022 31.848C33.162 31.848 29.573 28.123 29.573 23.579ZM55.678 31.788H55.498C54.501 31.788 53.837 31.151 53.415 30.181L48.105 17.975C48.013 17.702 47.893 17.4 47.893 17.067C47.893 16.157 48.708 15.31 49.703 15.31C50.699 15.31 51.213 15.884 51.514 16.643L55.618 27.243L59.782 16.583C60.053 15.947 60.537 15.31 61.502 15.31C62.498 15.31 63.282 16.067 63.282 17.067C63.282 17.4 63.162 17.764 63.072 17.945L57.76 30.18C57.337 31.12 56.673 31.787 55.677 31.787M77.951 23.579V23.519C77.951 20.701 75.931 18.369 73.063 18.369C70.136 18.369 68.265 20.671 68.265 23.458V23.518C68.265 26.305 70.287 28.637 73.125 28.637C76.08 28.637 77.951 26.335 77.951 23.579ZM64.614 23.579V23.519C64.614 18.944 68.235 15.158 73.124 15.158C78.012 15.158 81.603 18.883 81.603 23.458V23.518C81.603 28.062 77.983 31.848 73.063 31.848C68.205 31.848 64.614 28.123 64.614 23.579Z" fill="#00A082"/>
<path d="M90.661 9.96101L90.461 10.241L87.71 14.138L84.962 10.248L84.761 9.96601C84.3688 9.4219 84.1343 8.7802 84.0831 8.11145C84.0319 7.44269 84.166 6.77277 84.4708 6.1753C84.7756 5.57784 85.2392 5.07596 85.8106 4.72484C86.3821 4.37371 87.0393 4.18692 87.71 4.18501C88.3797 4.18811 89.0356 4.37538 89.6059 4.72634C90.1763 5.07729 90.6391 5.57839 90.9437 6.17479C91.2483 6.77118 91.3829 7.43988 91.3329 8.10769C91.2829 8.77549 91.0511 9.41666 90.661 9.96101ZM87.711 0.639008C83.755 0.639008 80.54 3.86901 80.54 7.83801C80.54 9.34901 81.008 10.8 81.891 12.033L82.081 12.299L85.816 17.587C85.816 17.587 86.271 18.334 87.264 18.334H88.156C89.151 18.334 89.604 17.587 89.604 17.587L93.336 12.298L93.526 12.032C94.4069 10.8108 94.88 9.34277 94.878 7.83701C94.878 3.86801 91.661 0.639008 87.708 0.639008M85.692 21.58V21.566C85.692 20.49 86.543 19.6 87.692 19.6C88.842 19.6 89.686 20.476 89.686 21.552V21.566C89.686 22.633 88.834 23.523 87.678 23.523C86.538 23.523 85.692 22.648 85.692 21.58Z" fill="#00A082"/>
</g>
<defs>
<clipPath id="clip0_13_36">
<rect width="95" height="32" fill="white"/>
</clipPath>
</defs>
</svg>
