<svg width="16" height="17" viewBox="0 0 16 17" fill="none" xmlns="http://www.w3.org/2000/svg">
<path d="M2.75 6.40987C2.75 3.56222 5.10674 1.25 8 1.25C10.8933 1.25 13.25 3.56222 13.25 6.40987C13.25 7.50711 13.0006 8.67277 12.5126 9.87332C12.1341 10.8066 11.6085 11.7666 10.9496 12.732C10.463 13.444 9.94474 14.1007 9.42687 14.688C9.10546 15.0525 8.81814 15.3506 8.69069 15.4706C8.5035 15.6519 8.25577 15.75 8 15.75C7.7427 15.75 7.49286 15.6513 7.31067 15.4725C7.1689 15.3371 6.89247 15.0495 6.57207 14.6853C6.05419 14.0967 5.53611 13.4391 5.04959 12.7264C4.39167 11.7619 3.86586 10.8013 3.48684 9.86872C2.9992 8.66746 2.75 7.50373 2.75 6.40987Z" stroke="#292929"/>
<mask id="mask0_833_24710" style="mask-type:alpha" maskUnits="userSpaceOnUse" x="2" y="0" width="12" height="17">
<path d="M2.75 6.40987C2.75 3.56222 5.10674 1.25 8 1.25C10.8933 1.25 13.25 3.56222 13.25 6.40987C13.25 7.50711 13.0006 8.67277 12.5126 9.87332C12.1341 10.8066 11.6085 11.7666 10.9496 12.732C10.463 13.444 9.94474 14.1007 9.42687 14.688C9.10546 15.0525 8.81814 15.3506 8.69069 15.4706C8.5035 15.6519 8.25577 15.75 8 15.75C7.7427 15.75 7.49286 15.6513 7.31067 15.4725C7.1689 15.3371 6.89247 15.0495 6.57207 14.6853C6.05419 14.0967 5.53611 13.4391 5.04959 12.7264C4.39167 11.7619 3.86586 10.8013 3.48684 9.86872C2.9992 8.66746 2.75 7.50373 2.75 6.40987Z" fill="white" stroke="white"/>
</mask>
<g mask="url(#mask0_833_24710)">
<ellipse cx="8" cy="6.58887" rx="2.5" ry="2.5" stroke="#292929"/>
</g>
</svg>
